<?xml version="1.0" encoding="UTF-8" standalone="no"?>
<svg xmlns="http://www.w3.org/2000/svg" viewBox="0 0 1200 600">
  <!-- Russian Flag (Top) -->
  <rect x="0" y="0" width="1200" height="200" fill="#FFFFFF"/>
  <rect x="0" y="200" width="1200" height="200" fill="#0039A6"/>
  <rect x="0" y="400" width="1200" height="200" fill="#D52B1E"/>
  
  <!-- Indian Flag (Overlay) -->
  <rect x="0" y="0" width="1200" height="200" fill="#FF9933"/>
  <rect x="0" y="200" width="1200" height="200" fill="#FFFFFF"/>
  <rect x="0" y="400" width="1200" height="200" fill="#138808"/>
  
  <!-- Ashoka Chakra -->
  <circle cx="600" cy="300" r="75" fill="#000080"/>
  <circle cx="600" cy="300" r="70" fill="#FFFFFF"/>
  <circle cx="600" cy="300" r="20" fill="#000080"/>
  <g stroke="#000080" stroke-width="4">
    <!-- 24 spokes of the Ashoka Chakra -->
    <line x1="600" y1="230" x2="600" y2="250"/>
    <line x1="600" y1="350" x2="600" y2="370"/>
    <line x1="530" y1="300" x2="550" y2="300"/>
    <line x1="650" y1="300" x2="670" y2="300"/>
    <line x1="550" y1="250" x2="565" y2="265"/>
    <line x1="650" y1="350" x2="635" y2="335"/>
    <line x1="550" y1="350" x2="565" y2="335"/>
    <line x1="650" y1="250" x2="635" y2="265"/>
    <line x1="575" y1="235" x2="585" y2="255"/>
    <line x1="625" y1="365" x2="615" y2="345"/>
    <line x1="535" y1="275" x2="555" y2="285"/>
    <line x1="665" y1="325" x2="645" y2="315"/>
    <line x1="535" y1="325" x2="555" y2="315"/>
    <line x1="665" y1="275" x2="645" y2="285"/>
    <line x1="575" y1="365" x2="585" y2="345"/>
    <line x1="625" y1="235" x2="615" y2="255"/>
    <!-- Additional spokes for more detail -->
    <line x1="560" y1="235" x2="570" y2="250"/>
    <line x1="640" y1="365" x2="630" y2="350"/>
    <line x1="535" y1="260" x2="550" y2="270"/>
    <line x1="665" y1="340" x2="650" y2="330"/>
    <line x1="535" y1="340" x2="550" y2="330"/>
    <line x1="665" y1="260" x2="650" y2="270"/>
    <line x1="560" y1="365" x2="570" y2="350"/>
    <line x1="640" y1="235" x2="630" y2="250"/>
  </g>

  <!-- Wave pattern to create a merging effect -->
  <path d="M0,0 Q300,100 600,0 T1200,0 V600 Q900,500 600,600 T0,600 Z" fill="none" stroke="none"/>
</svg>